<mxfile host="65bd71144e">
    <diagram name="Fill" id="YAcdeGvkLXR6jZ9tLZ5S">
        <mxGraphModel dx="746" dy="611" grid="1" gridSize="10" guides="1" tooltips="1" connect="1" arrows="1" fold="1" page="1" pageScale="1" pageWidth="850" pageHeight="1100" math="0" shadow="0">
            <root>
                <mxCell id="0"/>
                <mxCell id="1" parent="0"/>
                <mxCell id="fgTIFq8xEejHuyAAw1zg-1" value="capturePrice" style="shape=process;whiteSpace=wrap;html=1;backgroundOutline=1;rounded=1;" vertex="1" parent="1">
                    <mxGeometry x="200" y="280" width="120" height="180" as="geometry"/>
                </mxCell>
                <mxCell id="fgTIFq8xEejHuyAAw1zg-2" value="" style="endArrow=classic;html=1;rounded=0;jumpStyle=arc;entryX=-0.023;entryY=0.164;entryDx=0;entryDy=0;entryPerimeter=0;" edge="1" parent="1" target="fgTIFq8xEejHuyAAw1zg-1">
                    <mxGeometry width="50" height="50" relative="1" as="geometry">
                        <mxPoint x="40" y="310" as="sourcePoint"/>
                        <mxPoint x="180" y="310" as="targetPoint"/>
                    </mxGeometry>
                </mxCell>
                <mxCell id="fgTIFq8xEejHuyAAw1zg-3" value="sStart" style="edgeLabel;html=1;align=center;verticalAlign=middle;resizable=0;points=[];" vertex="1" connectable="0" parent="fgTIFq8xEejHuyAAw1zg-2">
                    <mxGeometry x="0.3833" y="-3" relative="1" as="geometry">
                        <mxPoint x="-31" y="7" as="offset"/>
                    </mxGeometry>
                </mxCell>
                <mxCell id="fgTIFq8xEejHuyAAw1zg-4" value="" style="endArrow=classic;html=1;rounded=0;jumpStyle=arc;" edge="1" parent="1">
                    <mxGeometry width="50" height="50" relative="1" as="geometry">
                        <mxPoint x="40" y="350" as="sourcePoint"/>
                        <mxPoint x="120" y="350" as="targetPoint"/>
                    </mxGeometry>
                </mxCell>
                <mxCell id="fgTIFq8xEejHuyAAw1zg-5" value="" style="endArrow=none;html=1;rounded=0;jumpStyle=arc;" edge="1" parent="1">
                    <mxGeometry width="50" height="50" relative="1" as="geometry">
                        <mxPoint x="120" y="390" as="sourcePoint"/>
                        <mxPoint x="200" y="390" as="targetPoint"/>
                        <Array as="points"/>
                    </mxGeometry>
                </mxCell>
                <mxCell id="fgTIFq8xEejHuyAAw1zg-6" value="" style="endArrow=classic;html=1;rounded=0;jumpStyle=arc;" edge="1" parent="1">
                    <mxGeometry width="50" height="50" relative="1" as="geometry">
                        <mxPoint x="40" y="430" as="sourcePoint"/>
                        <mxPoint x="120.00000000000001" y="430" as="targetPoint"/>
                    </mxGeometry>
                </mxCell>
                <mxCell id="fgTIFq8xEejHuyAAw1zg-7" value="" style="endArrow=none;html=1;rounded=0;jumpStyle=arc;entryX=0.017;entryY=0.58;entryDx=0;entryDy=0;entryPerimeter=0;" edge="1" parent="1">
                    <mxGeometry width="50" height="50" relative="1" as="geometry">
                        <mxPoint x="117.96000000000001" y="430.4" as="sourcePoint"/>
                        <mxPoint x="199.99999999999997" y="430" as="targetPoint"/>
                    </mxGeometry>
                </mxCell>
                <mxCell id="fgTIFq8xEejHuyAAw1zg-8" value="" style="endArrow=classic;html=1;rounded=0;jumpStyle=arc;" edge="1" parent="1">
                    <mxGeometry width="50" height="50" relative="1" as="geometry">
                        <mxPoint x="40" y="390" as="sourcePoint"/>
                        <mxPoint x="120.00000000000001" y="390" as="targetPoint"/>
                    </mxGeometry>
                </mxCell>
                <mxCell id="fgTIFq8xEejHuyAAw1zg-9" value="" style="endArrow=none;html=1;rounded=0;jumpStyle=arc;entryX=0.017;entryY=0.58;entryDx=0;entryDy=0;entryPerimeter=0;" edge="1" parent="1">
                    <mxGeometry width="50" height="50" relative="1" as="geometry">
                        <mxPoint x="117.96000000000001" y="350.4" as="sourcePoint"/>
                        <mxPoint x="199.99999999999997" y="350" as="targetPoint"/>
                    </mxGeometry>
                </mxCell>
                <mxCell id="fgTIFq8xEejHuyAAw1zg-10" value="price1" style="text;html=1;align=center;verticalAlign=middle;resizable=0;points=[];autosize=1;strokeColor=none;fillColor=none;" vertex="1" parent="1">
                    <mxGeometry x="90" y="350" width="60" height="30" as="geometry"/>
                </mxCell>
                <mxCell id="fgTIFq8xEejHuyAAw1zg-11" value="price2" style="text;html=1;align=center;verticalAlign=middle;resizable=0;points=[];autosize=1;strokeColor=none;fillColor=none;" vertex="1" parent="1">
                    <mxGeometry x="90" y="390" width="60" height="30" as="geometry"/>
                </mxCell>
                <mxCell id="fgTIFq8xEejHuyAAw1zg-12" value="price3" style="text;html=1;align=center;verticalAlign=middle;resizable=0;points=[];autosize=1;strokeColor=none;fillColor=none;" vertex="1" parent="1">
                    <mxGeometry x="90" y="430" width="60" height="30" as="geometry"/>
                </mxCell>
                <mxCell id="fgTIFq8xEejHuyAAw1zg-13" value="" style="endArrow=none;html=1;rounded=0;jumpStyle=arc;entryX=0.25;entryY=1;entryDx=0;entryDy=0;" edge="1" parent="1" target="7tKI6nQRQKrgU5gis_yl-12">
                    <mxGeometry width="50" height="50" relative="1" as="geometry">
                        <mxPoint x="560" y="400" as="sourcePoint"/>
                        <mxPoint x="400" y="370" as="targetPoint"/>
                        <Array as="points">
                            <mxPoint x="560" y="430"/>
                        </Array>
                    </mxGeometry>
                </mxCell>
                <mxCell id="fgTIFq8xEejHuyAAw1zg-14" value="" style="endArrow=classic;html=1;rounded=0;jumpStyle=arc;" edge="1" parent="1">
                    <mxGeometry width="50" height="50" relative="1" as="geometry">
                        <mxPoint x="320" y="370" as="sourcePoint"/>
                        <mxPoint x="560" y="400" as="targetPoint"/>
                        <Array as="points">
                            <mxPoint x="560" y="370"/>
                        </Array>
                    </mxGeometry>
                </mxCell>
                <mxCell id="fgTIFq8xEejHuyAAw1zg-15" value="price" style="text;html=1;align=center;verticalAlign=middle;resizable=0;points=[];autosize=1;strokeColor=none;fillColor=none;" vertex="1" parent="1">
                    <mxGeometry x="700" y="370" width="50" height="30" as="geometry"/>
                </mxCell>
                <mxCell id="7tKI6nQRQKrgU5gis_yl-1" value="AccumulatePulsePump.accumulate" style="shape=process;whiteSpace=wrap;html=1;backgroundOutline=1;rounded=1;" vertex="1" parent="1">
                    <mxGeometry x="200" y="500" width="280" height="180" as="geometry"/>
                </mxCell>
                <mxCell id="7tKI6nQRQKrgU5gis_yl-2" value="" style="endArrow=classic;html=1;rounded=0;jumpStyle=arc;entryX=-0.023;entryY=0.164;entryDx=0;entryDy=0;entryPerimeter=0;" edge="1" parent="1">
                    <mxGeometry width="50" height="50" relative="1" as="geometry">
                        <mxPoint x="41.38" y="560.48" as="sourcePoint"/>
                        <mxPoint x="198.62" y="560" as="targetPoint"/>
                    </mxGeometry>
                </mxCell>
                <mxCell id="7tKI6nQRQKrgU5gis_yl-3" value="sClearAccumulator" style="edgeLabel;html=1;align=center;verticalAlign=middle;resizable=0;points=[];" vertex="1" connectable="0" parent="7tKI6nQRQKrgU5gis_yl-2">
                    <mxGeometry x="0.3833" y="-3" relative="1" as="geometry">
                        <mxPoint x="-31" y="7" as="offset"/>
                    </mxGeometry>
                </mxCell>
                <mxCell id="7tKI6nQRQKrgU5gis_yl-4" value="" style="endArrow=classic;html=1;rounded=0;jumpStyle=arc;entryX=-0.023;entryY=0.164;entryDx=0;entryDy=0;entryPerimeter=0;" edge="1" parent="1">
                    <mxGeometry width="50" height="50" relative="1" as="geometry">
                        <mxPoint x="41.379999999999995" y="600.48" as="sourcePoint"/>
                        <mxPoint x="198.62" y="600" as="targetPoint"/>
                    </mxGeometry>
                </mxCell>
                <mxCell id="7tKI6nQRQKrgU5gis_yl-5" value="sFuelPulses" style="edgeLabel;html=1;align=center;verticalAlign=middle;resizable=0;points=[];" vertex="1" connectable="0" parent="7tKI6nQRQKrgU5gis_yl-4">
                    <mxGeometry x="0.3833" y="-3" relative="1" as="geometry">
                        <mxPoint x="-31" y="7" as="offset"/>
                    </mxGeometry>
                </mxCell>
                <mxCell id="7tKI6nQRQKrgU5gis_yl-6" value="" style="endArrow=classic;html=1;rounded=0;jumpStyle=arc;" edge="1" parent="1">
                    <mxGeometry width="50" height="50" relative="1" as="geometry">
                        <mxPoint x="41.379999999999995" y="640.48" as="sourcePoint"/>
                        <mxPoint x="120" y="640" as="targetPoint"/>
                    </mxGeometry>
                </mxCell>
                <mxCell id="7tKI6nQRQKrgU5gis_yl-7" value="caribration" style="edgeLabel;html=1;align=center;verticalAlign=middle;resizable=0;points=[];" vertex="1" connectable="0" parent="7tKI6nQRQKrgU5gis_yl-6">
                    <mxGeometry x="0.3833" y="-3" relative="1" as="geometry">
                        <mxPoint x="25" y="7" as="offset"/>
                    </mxGeometry>
                </mxCell>
                <mxCell id="7tKI6nQRQKrgU5gis_yl-8" value="" style="endArrow=none;html=1;rounded=0;jumpStyle=arc;" edge="1" parent="1">
                    <mxGeometry width="50" height="50" relative="1" as="geometry">
                        <mxPoint x="120" y="640" as="sourcePoint"/>
                        <mxPoint x="200" y="640" as="targetPoint"/>
                    </mxGeometry>
                </mxCell>
                <mxCell id="7tKI6nQRQKrgU5gis_yl-9" value="" style="endArrow=classic;html=1;rounded=0;jumpStyle=arc;" edge="1" parent="1">
                    <mxGeometry width="50" height="50" relative="1" as="geometry">
                        <mxPoint x="480" y="600" as="sourcePoint"/>
                        <mxPoint x="560" y="560" as="targetPoint"/>
                        <Array as="points">
                            <mxPoint x="560" y="600"/>
                        </Array>
                    </mxGeometry>
                </mxCell>
                <mxCell id="7tKI6nQRQKrgU5gis_yl-10" value="" style="endArrow=none;html=1;rounded=0;jumpStyle=arc;entryX=0.75;entryY=1;entryDx=0;entryDy=0;" edge="1" parent="1" target="7tKI6nQRQKrgU5gis_yl-12">
                    <mxGeometry width="50" height="50" relative="1" as="geometry">
                        <mxPoint x="560" y="560" as="sourcePoint"/>
                        <mxPoint x="690" y="589.5" as="targetPoint"/>
                        <Array as="points">
                            <mxPoint x="560" y="490"/>
                        </Array>
                    </mxGeometry>
                </mxCell>
                <mxCell id="7tKI6nQRQKrgU5gis_yl-11" value="litersDelivered" style="text;html=1;align=center;verticalAlign=middle;resizable=0;points=[];autosize=1;strokeColor=none;fillColor=none;" vertex="1" parent="1">
                    <mxGeometry x="675" y="600" width="100" height="30" as="geometry"/>
                </mxCell>
                <mxCell id="7tKI6nQRQKrgU5gis_yl-12" value="*" style="shape=trapezoid;perimeter=trapezoidPerimeter;whiteSpace=wrap;html=1;fixedSize=1;rounded=0;direction=south;" vertex="1" parent="1">
                    <mxGeometry x="600" y="400" width="60" height="120" as="geometry"/>
                </mxCell>
                <mxCell id="7tKI6nQRQKrgU5gis_yl-13" value="lift" style="text;html=1;align=center;verticalAlign=middle;resizable=0;points=[];autosize=1;strokeColor=none;fillColor=none;" vertex="1" parent="1">
                    <mxGeometry x="610" y="520" width="40" height="30" as="geometry"/>
                </mxCell>
                <mxCell id="7tKI6nQRQKrgU5gis_yl-14" value="" style="endArrow=classic;html=1;rounded=0;jumpStyle=arc;" edge="1" parent="1">
                    <mxGeometry width="50" height="50" relative="1" as="geometry">
                        <mxPoint x="660" y="460" as="sourcePoint"/>
                        <mxPoint x="720" y="460" as="targetPoint"/>
                    </mxGeometry>
                </mxCell>
                <mxCell id="7tKI6nQRQKrgU5gis_yl-15" value="" style="endArrow=none;html=1;rounded=0;jumpStyle=arc;" edge="1" parent="1">
                    <mxGeometry width="50" height="50" relative="1" as="geometry">
                        <mxPoint x="720" y="460" as="sourcePoint"/>
                        <mxPoint x="780" y="460" as="targetPoint"/>
                    </mxGeometry>
                </mxCell>
                <mxCell id="7tKI6nQRQKrgU5gis_yl-16" value="dollarsDelivered" style="text;html=1;align=center;verticalAlign=middle;resizable=0;points=[];autosize=1;strokeColor=none;fillColor=none;" vertex="1" parent="1">
                    <mxGeometry x="670" y="460" width="110" height="30" as="geometry"/>
                </mxCell>
                <mxCell id="7tKI6nQRQKrgU5gis_yl-17" value="" style="endArrow=none;html=1;rounded=0;jumpStyle=arc;" edge="1" parent="1">
                    <mxGeometry width="50" height="50" relative="1" as="geometry">
                        <mxPoint x="640" y="370" as="sourcePoint"/>
                        <mxPoint x="780" y="370" as="targetPoint"/>
                    </mxGeometry>
                </mxCell>
                <mxCell id="7tKI6nQRQKrgU5gis_yl-18" value="" style="endArrow=none;html=1;rounded=0;jumpStyle=arc;" edge="1" parent="1">
                    <mxGeometry width="50" height="50" relative="1" as="geometry">
                        <mxPoint x="640" y="600" as="sourcePoint"/>
                        <mxPoint x="780" y="600" as="targetPoint"/>
                    </mxGeometry>
                </mxCell>
                <mxCell id="7tKI6nQRQKrgU5gis_yl-19" value="" style="endArrow=classic;html=1;rounded=0;jumpStyle=arc;" edge="1" parent="1">
                    <mxGeometry width="50" height="50" relative="1" as="geometry">
                        <mxPoint x="560" y="600" as="sourcePoint"/>
                        <mxPoint x="640" y="600" as="targetPoint"/>
                    </mxGeometry>
                </mxCell>
                <mxCell id="7tKI6nQRQKrgU5gis_yl-20" value="" style="endArrow=classic;html=1;rounded=0;jumpStyle=arc;" edge="1" parent="1">
                    <mxGeometry width="50" height="50" relative="1" as="geometry">
                        <mxPoint x="560" y="370" as="sourcePoint"/>
                        <mxPoint x="640" y="370" as="targetPoint"/>
                    </mxGeometry>
                </mxCell>
            </root>
        </mxGraphModel>
    </diagram>
    <diagram id="zTzjKg73pXZ7IBIplBG_" name="capturePrice">
        <mxGraphModel dx="746" dy="611" grid="1" gridSize="10" guides="1" tooltips="1" connect="1" arrows="1" fold="1" page="1" pageScale="1" pageWidth="850" pageHeight="1100" math="0" shadow="0">
            <root>
                <mxCell id="0"/>
                <mxCell id="1" parent="0"/>
                <mxCell id="O5YHKNQe7RO0p6iDWSQi-1" value="" style="endArrow=classic;html=1;" edge="1" parent="1">
                    <mxGeometry width="50" height="50" relative="1" as="geometry">
                        <mxPoint x="40" y="200" as="sourcePoint"/>
                        <mxPoint x="280" y="200" as="targetPoint"/>
                    </mxGeometry>
                </mxCell>
                <mxCell id="O5YHKNQe7RO0p6iDWSQi-2" value="sStart" style="edgeLabel;html=1;align=center;verticalAlign=middle;resizable=0;points=[];" vertex="1" connectable="0" parent="O5YHKNQe7RO0p6iDWSQi-1">
                    <mxGeometry x="0.37" y="-2" relative="1" as="geometry">
                        <mxPoint x="-84" y="8" as="offset"/>
                    </mxGeometry>
                </mxCell>
                <mxCell id="O5YHKNQe7RO0p6iDWSQi-3" value="" style="endArrow=classic;html=1;" edge="1" parent="1">
                    <mxGeometry width="50" height="50" relative="1" as="geometry">
                        <mxPoint x="40" y="240" as="sourcePoint"/>
                        <mxPoint x="120" y="240" as="targetPoint"/>
                    </mxGeometry>
                </mxCell>
                <mxCell id="O5YHKNQe7RO0p6iDWSQi-4" value="" style="endArrow=none;html=1;entryX=1;entryY=0.75;entryDx=0;entryDy=0;rounded=0;jumpStyle=none;" edge="1" parent="1" target="O5YHKNQe7RO0p6iDWSQi-14">
                    <mxGeometry width="50" height="50" relative="1" as="geometry">
                        <mxPoint x="120" y="240" as="sourcePoint"/>
                        <mxPoint x="310" y="240" as="targetPoint"/>
                        <Array as="points">
                            <mxPoint x="300" y="240"/>
                        </Array>
                    </mxGeometry>
                </mxCell>
                <mxCell id="O5YHKNQe7RO0p6iDWSQi-5" value="price1" style="edgeLabel;html=1;align=center;verticalAlign=middle;resizable=0;points=[];" vertex="1" connectable="0" parent="O5YHKNQe7RO0p6iDWSQi-4">
                    <mxGeometry x="-0.605" y="-1" relative="1" as="geometry">
                        <mxPoint x="-40" y="9" as="offset"/>
                    </mxGeometry>
                </mxCell>
                <mxCell id="O5YHKNQe7RO0p6iDWSQi-6" value="" style="endArrow=classic;html=1;" edge="1" parent="1">
                    <mxGeometry width="50" height="50" relative="1" as="geometry">
                        <mxPoint x="40" y="320" as="sourcePoint"/>
                        <mxPoint x="120" y="320" as="targetPoint"/>
                    </mxGeometry>
                </mxCell>
                <mxCell id="O5YHKNQe7RO0p6iDWSQi-7" value="" style="endArrow=none;html=1;entryX=0;entryY=0.25;entryDx=0;entryDy=0;rounded=0;" edge="1" parent="1" target="O5YHKNQe7RO0p6iDWSQi-15">
                    <mxGeometry width="50" height="50" relative="1" as="geometry">
                        <mxPoint x="120" y="320" as="sourcePoint"/>
                        <mxPoint x="200" y="320" as="targetPoint"/>
                        <Array as="points">
                            <mxPoint x="120" y="320"/>
                            <mxPoint x="300" y="320"/>
                        </Array>
                    </mxGeometry>
                </mxCell>
                <mxCell id="O5YHKNQe7RO0p6iDWSQi-8" value="price2" style="edgeLabel;html=1;align=center;verticalAlign=middle;resizable=0;points=[];" vertex="1" connectable="0" parent="O5YHKNQe7RO0p6iDWSQi-7">
                    <mxGeometry x="-0.605" y="-1" relative="1" as="geometry">
                        <mxPoint x="-40" y="9" as="offset"/>
                    </mxGeometry>
                </mxCell>
                <mxCell id="O5YHKNQe7RO0p6iDWSQi-9" value="" style="endArrow=classic;html=1;" edge="1" parent="1">
                    <mxGeometry width="50" height="50" relative="1" as="geometry">
                        <mxPoint x="40" y="400" as="sourcePoint"/>
                        <mxPoint x="120" y="400" as="targetPoint"/>
                    </mxGeometry>
                </mxCell>
                <mxCell id="O5YHKNQe7RO0p6iDWSQi-10" value="" style="endArrow=none;html=1;rounded=0;" edge="1" parent="1">
                    <mxGeometry width="50" height="50" relative="1" as="geometry">
                        <mxPoint x="120" y="400" as="sourcePoint"/>
                        <mxPoint x="300" y="380" as="targetPoint"/>
                        <Array as="points">
                            <mxPoint x="300" y="400"/>
                        </Array>
                    </mxGeometry>
                </mxCell>
                <mxCell id="O5YHKNQe7RO0p6iDWSQi-11" value="price3" style="edgeLabel;html=1;align=center;verticalAlign=middle;resizable=0;points=[];" vertex="1" connectable="0" parent="O5YHKNQe7RO0p6iDWSQi-10">
                    <mxGeometry x="-0.605" y="-1" relative="1" as="geometry">
                        <mxPoint x="-40" y="9" as="offset"/>
                    </mxGeometry>
                </mxCell>
                <mxCell id="O5YHKNQe7RO0p6iDWSQi-12" value="" style="endArrow=classic;html=1;rounded=0;jumpStyle=arc;" edge="1" parent="1">
                    <mxGeometry width="50" height="50" relative="1" as="geometry">
                        <mxPoint x="200" y="200" as="sourcePoint"/>
                        <mxPoint x="280" y="280" as="targetPoint"/>
                        <Array as="points">
                            <mxPoint x="200" y="280"/>
                        </Array>
                    </mxGeometry>
                </mxCell>
                <mxCell id="O5YHKNQe7RO0p6iDWSQi-13" value="" style="endArrow=classic;html=1;rounded=0;jumpStyle=arc;" edge="1" parent="1">
                    <mxGeometry width="50" height="50" relative="1" as="geometry">
                        <mxPoint x="200" y="280" as="sourcePoint"/>
                        <mxPoint x="280" y="360" as="targetPoint"/>
                        <Array as="points">
                            <mxPoint x="200" y="360"/>
                        </Array>
                    </mxGeometry>
                </mxCell>
                <mxCell id="O5YHKNQe7RO0p6iDWSQi-14" value="spanshot" style="shape=offPageConnector;whiteSpace=wrap;html=1;rotation=0;direction=south;flipH=1;" vertex="1" parent="1">
                    <mxGeometry x="280" y="180" width="80" height="40" as="geometry"/>
                </mxCell>
                <mxCell id="O5YHKNQe7RO0p6iDWSQi-15" value="snapshot" style="shape=offPageConnector;whiteSpace=wrap;html=1;rotation=0;direction=north;" vertex="1" parent="1">
                    <mxGeometry x="280" y="260" width="80" height="40" as="geometry"/>
                </mxCell>
                <mxCell id="O5YHKNQe7RO0p6iDWSQi-16" value="snapshot" style="shape=offPageConnector;whiteSpace=wrap;html=1;rotation=0;size=0.5;direction=north;" vertex="1" parent="1">
                    <mxGeometry x="280" y="340" width="80" height="40" as="geometry"/>
                </mxCell>
                <mxCell id="O5YHKNQe7RO0p6iDWSQi-17" value="" style="endArrow=none;html=1;rounded=0;" edge="1" parent="1">
                    <mxGeometry width="50" height="50" relative="1" as="geometry">
                        <mxPoint x="360" y="200" as="sourcePoint"/>
                        <mxPoint x="400" y="200" as="targetPoint"/>
                    </mxGeometry>
                </mxCell>
                <mxCell id="O5YHKNQe7RO0p6iDWSQi-18" value="" style="endArrow=none;html=1;rounded=0;" edge="1" parent="1">
                    <mxGeometry width="50" height="50" relative="1" as="geometry">
                        <mxPoint x="360" y="279.5" as="sourcePoint"/>
                        <mxPoint x="400" y="279.5" as="targetPoint"/>
                        <Array as="points">
                            <mxPoint x="380" y="279.5"/>
                        </Array>
                    </mxGeometry>
                </mxCell>
                <mxCell id="O5YHKNQe7RO0p6iDWSQi-19" value="" style="endArrow=none;html=1;rounded=0;" edge="1" parent="1">
                    <mxGeometry width="50" height="50" relative="1" as="geometry">
                        <mxPoint x="360" y="359.5" as="sourcePoint"/>
                        <mxPoint x="400" y="359.5" as="targetPoint"/>
                        <Array as="points">
                            <mxPoint x="380" y="359.5"/>
                        </Array>
                    </mxGeometry>
                </mxCell>
                <mxCell id="O5YHKNQe7RO0p6iDWSQi-20" value="filterOptional" style="rhombus;whiteSpace=wrap;html=1;" vertex="1" parent="1">
                    <mxGeometry x="390" y="180" width="100" height="40" as="geometry"/>
                </mxCell>
                <mxCell id="O5YHKNQe7RO0p6iDWSQi-21" value="filterOptional" style="rhombus;whiteSpace=wrap;html=1;" vertex="1" parent="1">
                    <mxGeometry x="390" y="260" width="100" height="40" as="geometry"/>
                </mxCell>
                <mxCell id="O5YHKNQe7RO0p6iDWSQi-22" value="filterOptional" style="rhombus;whiteSpace=wrap;html=1;" vertex="1" parent="1">
                    <mxGeometry x="390" y="340" width="100" height="40" as="geometry"/>
                </mxCell>
                <mxCell id="O5YHKNQe7RO0p6iDWSQi-23" value="merge" style="shape=trapezoid;perimeter=trapezoidPerimeter;whiteSpace=wrap;html=1;fixedSize=1;rotation=0;direction=south;" vertex="1" parent="1">
                    <mxGeometry x="540" y="240" width="40" height="80" as="geometry"/>
                </mxCell>
                <mxCell id="O5YHKNQe7RO0p6iDWSQi-24" value="" style="endArrow=classic;html=1;rounded=0;jumpStyle=arc;entryX=0.75;entryY=1;entryDx=0;entryDy=0;" edge="1" parent="1" target="O5YHKNQe7RO0p6iDWSQi-23">
                    <mxGeometry width="50" height="50" relative="1" as="geometry">
                        <mxPoint x="490" y="360" as="sourcePoint"/>
                        <mxPoint x="530" y="310" as="targetPoint"/>
                        <Array as="points">
                            <mxPoint x="520" y="360"/>
                            <mxPoint x="520" y="300"/>
                        </Array>
                    </mxGeometry>
                </mxCell>
                <mxCell id="O5YHKNQe7RO0p6iDWSQi-25" value="" style="endArrow=classic;html=1;rounded=0;jumpStyle=arc;entryX=0.5;entryY=1;entryDx=0;entryDy=0;" edge="1" parent="1" target="O5YHKNQe7RO0p6iDWSQi-23">
                    <mxGeometry width="50" height="50" relative="1" as="geometry">
                        <mxPoint x="490" y="280" as="sourcePoint"/>
                        <mxPoint x="530" y="230" as="targetPoint"/>
                    </mxGeometry>
                </mxCell>
                <mxCell id="O5YHKNQe7RO0p6iDWSQi-26" value="" style="endArrow=classic;html=1;rounded=0;jumpStyle=arc;entryX=0.25;entryY=1;entryDx=0;entryDy=0;" edge="1" parent="1" source="O5YHKNQe7RO0p6iDWSQi-20" target="O5YHKNQe7RO0p6iDWSQi-23">
                    <mxGeometry width="50" height="50" relative="1" as="geometry">
                        <mxPoint x="480" y="200" as="sourcePoint"/>
                        <mxPoint x="530" y="150" as="targetPoint"/>
                        <Array as="points">
                            <mxPoint x="520" y="200"/>
                            <mxPoint x="520" y="260"/>
                        </Array>
                    </mxGeometry>
                </mxCell>
                <mxCell id="O5YHKNQe7RO0p6iDWSQi-27" value="" style="endArrow=classic;html=1;rounded=0;jumpStyle=arc;" edge="1" parent="1">
                    <mxGeometry width="50" height="50" relative="1" as="geometry">
                        <mxPoint x="580" y="280" as="sourcePoint"/>
                        <mxPoint x="620" y="280" as="targetPoint"/>
                    </mxGeometry>
                </mxCell>
                <mxCell id="O5YHKNQe7RO0p6iDWSQi-28" value="hold&lt;br&gt;0.0" style="rounded=1;whiteSpace=wrap;html=1;" vertex="1" parent="1">
                    <mxGeometry x="620" y="260" width="80" height="40" as="geometry"/>
                </mxCell>
                <mxCell id="O5YHKNQe7RO0p6iDWSQi-29" value="" style="endArrow=classic;html=1;rounded=0;jumpStyle=arc;" edge="1" parent="1">
                    <mxGeometry width="50" height="50" relative="1" as="geometry">
                        <mxPoint x="700" y="280" as="sourcePoint"/>
                        <mxPoint x="740" y="280" as="targetPoint"/>
                    </mxGeometry>
                </mxCell>
                <mxCell id="O5YHKNQe7RO0p6iDWSQi-30" value="" style="endArrow=none;html=1;rounded=0;jumpStyle=arc;" edge="1" parent="1">
                    <mxGeometry width="50" height="50" relative="1" as="geometry">
                        <mxPoint x="740" y="280" as="sourcePoint"/>
                        <mxPoint x="780" y="280" as="targetPoint"/>
                        <Array as="points"/>
                    </mxGeometry>
                </mxCell>
            </root>
        </mxGraphModel>
    </diagram>
</mxfile>